<?xml version="1.0" standalone="no"?>
<!DOCTYPE svg PUBLIC "-//W3C//DTD SVG 20010904//EN"
 "http://www.w3.org/TR/2001/REC-SVG-20010904/DTD/svg10.dtd">
<svg version="1.0" xmlns="http://www.w3.org/2000/svg"
 width="350.000000pt" height="350.000000pt" viewBox="0 0 350.000000 350.000000"
 preserveAspectRatio="xMidYMid meet">
<metadata>
Created by potrace 1.14, written by Peter Selinger 2001-2017
</metadata>
<g transform="translate(0.000000,350.000000) scale(0.100000,-0.100000)"
fill="#000000" stroke="none">
<path d="M1344 3368 l-29 -33 33 29 c30 28 37 36 29 36 -2 0 -16 -15 -33 -32z"/>
<path d="M1925 3265 c-23 -8 -59 -35 -86 -64 l-46 -50 -14 26 c-30 56 -156
103 -227 84 -119 -32 -164 -147 -107 -270 14 -30 24 -54 23 -55 -2 -1 -37 -13
-78 -26 -164 -54 -303 -142 -436 -274 -136 -135 -214 -266 -270 -451 -26 -82
-28 -104 -28 -260 -1 -195 15 -275 84 -422 103 -220 312 -427 535 -529 l55
-26 -44 -56 c-88 -111 -109 -202 -69 -293 11 -25 35 -57 54 -73 33 -28 33 -28
34 -120 0 -80 3 -96 26 -136 37 -61 60 -81 118 -96 54 -14 118 -5 159 22 40
26 80 101 93 175 l12 69 57 0 57 0 12 -66 c28 -153 108 -225 225 -203 127 23
194 118 184 259 l-5 69 38 26 c103 68 103 202 -1 357 -22 33 -39 62 -38 64 2
1 29 14 61 28 224 99 455 333 547 553 62 148 74 212 74 393 0 139 -4 178 -22
244 -85 306 -290 548 -586 692 -60 29 -139 60 -175 70 -36 9 -70 20 -74 24 -4
4 6 33 23 64 80 153 -18 304 -165 251z m146 -353 c262 -70 479 -212 631 -412
68 -88 143 -246 170 -355 31 -127 31 -323 0 -449 -27 -106 -94 -253 -156 -340
-312 -438 -941 -587 -1441 -342 -290 142 -485 374 -567 675 -31 110 -31 352 0
462 109 398 440 694 865 775 108 20 399 12 498 -14z m-661 -1992 c0 -5 6 -7
13 -4 9 3 2 -31 -23 -103 -21 -59 -46 -141 -56 -181 -21 -82 -34 -88 -71 -33
-49 72 -22 174 72 279 45 50 65 63 65 42z m793 -30 c102 -112 123 -252 49
-323 l-28 -26 -12 66 c-11 59 -53 221 -68 263 -5 13 -7 13 -17 -1 -14 -18 -47
-32 -47 -20 0 4 10 13 23 20 l22 12 -22 -5 c-32 -6 -28 6 7 26 17 9 30 13 30
8 0 -6 -4 -10 -10 -10 -5 0 -10 -5 -10 -10 0 -7 6 -7 20 0 11 6 17 16 14 25
-11 27 13 15 49 -25z m-732 -14 c5 3 7 10 4 15 -4 5 -1 9 5 9 7 0 9 -7 6 -15
-3 -9 1 -18 9 -21 8 -4 15 -11 15 -16 0 -7 -4 -7 -12 0 -7 6 -16 11 -21 11
-23 1 -37 19 -30 37 7 18 8 18 11 -4 2 -12 8 -20 13 -16z m569 14 c0 -5 -4
-10 -10 -10 -5 0 -10 5 -10 10 0 6 5 10 10 10 6 0 10 -4 10 -10z m-520 -10 c0
-5 -4 -10 -10 -10 -5 0 -10 5 -10 10 0 6 5 10 10 10 6 0 10 -4 10 -10z m490 2
c0 -4 -9 -8 -20 -9 -11 -1 -20 2 -20 5 0 4 9 8 20 9 11 1 20 -2 20 -5z m-460
-6 c0 -3 -4 -8 -10 -11 -5 -3 -10 -1 -10 4 0 6 5 11 10 11 6 0 10 -2 10 -4z
m30 -6 c0 -5 -4 -10 -10 -10 -5 0 -10 5 -10 10 0 6 5 10 10 10 6 0 10 -4 10
-10z m380 0 c0 -5 -4 -10 -10 -10 -5 0 -10 5 -10 10 0 6 5 10 10 10 6 0 10 -4
10 -10z m110 0 c0 -5 -4 -10 -10 -10 -5 0 -10 5 -10 10 0 6 5 10 10 10 6 0 10
-4 10 -10z m-460 -10 c0 -5 -4 -10 -10 -10 -5 0 -10 5 -10 10 0 6 5 10 10 10
6 0 10 -4 10 -10z m25 0 c3 -5 1 -10 -4 -10 -6 0 -11 5 -11 10 0 6 2 10 4 10
3 0 8 -4 11 -10z m265 0 c0 -5 -2 -10 -4 -10 -3 0 -8 5 -11 10 -3 6 -1 10 4
10 6 0 11 -4 11 -10z m140 0 c0 -5 -4 -10 -10 -10 -5 0 -10 5 -10 10 0 6 5 10
10 10 6 0 10 -4 10 -10z m-370 -4 c0 -3 -4 -8 -10 -11 -5 -3 -10 -1 -10 4 0 6
5 11 10 11 6 0 10 -2 10 -4z m30 -6 c0 -5 -4 -10 -10 -10 -5 0 -10 5 -10 10 0
6 5 10 10 10 6 0 10 -4 10 -10z m25 0 c3 -5 1 -10 -4 -10 -6 0 -11 5 -11 10 0
6 2 10 4 10 3 0 8 -4 11 -10z m35 0 c0 -5 -4 -10 -10 -10 -5 0 -10 5 -10 10 0
6 5 10 10 10 6 0 10 -4 10 -10z m30 0 c0 -5 -4 -10 -10 -10 -5 0 -10 5 -10 10
0 6 5 10 10 10 6 0 10 -4 10 -10z m30 0 c0 -5 -4 -10 -10 -10 -5 0 -10 5 -10
10 0 6 5 10 10 10 6 0 10 -4 10 -10z m30 6 c0 -3 -4 -8 -10 -11 -5 -3 -10 -1
-10 4 0 6 5 11 10 11 6 0 10 -2 10 -4z m160 -4 c0 -4 -9 -8 -20 -9 -11 -1 -20
2 -20 5 0 4 9 8 20 9 11 1 20 -2 20 -5z m-470 -12 c0 -5 -2 -10 -4 -10 -3 0
-8 5 -11 10 -3 6 -1 10 4 10 6 0 11 -4 11 -10z m30 0 c0 -5 -5 -10 -11 -10 -5
0 -7 5 -4 10 3 6 8 10 11 10 2 0 4 -4 4 -10z m390 0 c0 -5 -4 -10 -10 -10 -5
0 -10 5 -10 10 0 6 5 10 10 10 6 0 10 -4 10 -10z m-360 -10 c0 -5 -2 -10 -4
-10 -3 0 -8 5 -11 10 -3 6 -1 10 4 10 6 0 11 -4 11 -10z m30 0 c0 -5 -5 -10
-11 -10 -5 0 -7 5 -4 10 3 6 8 10 11 10 2 0 4 -4 4 -10z m270 0 c0 -5 -4 -10
-10 -10 -5 0 -10 5 -10 10 0 6 5 10 10 10 6 0 10 -4 10 -10z m30 0 c0 -5 -2
-10 -4 -10 -3 0 -8 5 -11 10 -3 6 -1 10 4 10 6 0 11 -4 11 -10z m-420 -10 c0
-5 -4 -10 -10 -10 -5 0 -10 5 -10 10 0 6 5 10 10 10 6 0 10 -4 10 -10z m185 0
c3 -5 1 -10 -4 -10 -6 0 -11 5 -11 10 0 6 2 10 4 10 3 0 8 -4 11 -10z m30 0
c3 -5 1 -10 -4 -10 -6 0 -11 5 -11 10 0 6 2 10 4 10 3 0 8 -4 11 -10z m35 0
c0 -5 -4 -10 -10 -10 -5 0 -10 5 -10 10 0 6 5 10 10 10 6 0 10 -4 10 -10z m30
0 c0 -5 -4 -10 -10 -10 -5 0 -10 5 -10 10 0 6 5 10 10 10 6 0 10 -4 10 -10z
m25 0 c3 -5 1 -10 -4 -10 -6 0 -11 5 -11 10 0 6 2 10 4 10 3 0 8 -4 11 -10z
m35 0 c0 -5 -4 -10 -10 -10 -5 0 -10 5 -10 10 0 6 5 10 10 10 6 0 10 -4 10
-10z m160 1 c0 -5 -9 -11 -20 -14 -11 -3 -20 -1 -20 3 0 5 8 11 18 13 9 3 18
5 20 6 1 0 2 -3 2 -8z m-470 -11 c0 -5 -4 -10 -10 -10 -5 0 -10 5 -10 10 0 6
5 10 10 10 6 0 10 -4 10 -10z m25 0 c3 -5 1 -10 -4 -10 -6 0 -11 5 -11 10 0 6
2 10 4 10 3 0 8 -4 11 -10z m390 0 c3 -5 1 -10 -4 -10 -6 0 -11 5 -11 10 0 6
2 10 4 10 3 0 8 -4 11 -10z m-355 -10 c0 -5 -4 -10 -10 -10 -5 0 -10 5 -10 10
0 6 5 10 10 10 6 0 10 -4 10 -10z m300 0 c0 -5 -5 -10 -11 -10 -5 0 -7 5 -4
10 3 6 8 10 11 10 2 0 4 -4 4 -10z m-400 -4 c0 -3 -4 -8 -10 -11 -5 -3 -10 -1
-10 4 0 6 5 11 10 11 6 0 10 -2 10 -4z m160 -6 c0 -5 -4 -10 -10 -10 -5 0 -10
5 -10 10 0 6 5 10 10 10 6 0 10 -4 10 -10z m-130 -4 c0 -3 -4 -8 -10 -11 -5
-3 -10 -1 -10 4 0 6 5 11 10 11 6 0 10 -2 10 -4z m25 -6 c3 -5 1 -10 -4 -10
-6 0 -11 5 -11 10 0 6 2 10 4 10 3 0 8 -4 11 -10z m35 -10 c0 -5 -4 -10 -10
-10 -5 0 -10 5 -10 10 0 6 5 10 10 10 6 0 10 -4 10 -10z m-100 -10 c0 -5 -4
-10 -10 -10 -5 0 -10 5 -10 10 0 6 5 10 10 10 6 0 10 -4 10 -10z m164 4 c23
-9 20 -23 -4 -17 -11 3 -20 9 -20 14 0 11 3 11 24 3z m406 -11 c0 -15 2 -16
10 -3 5 8 10 13 11 10 0 -3 2 -14 4 -24 2 -10 -3 -25 -11 -33 -9 -10 -14 -11
-14 -3 0 7 -7 9 -16 6 -12 -4 -15 -2 -10 9 3 8 1 15 -4 15 -6 0 -10 5 -10 11
0 6 7 9 14 6 10 -4 13 -1 9 9 -3 7 0 14 6 14 6 0 11 -8 11 -17z m-540 -3 c0
-5 -4 -10 -10 -10 -5 0 -10 5 -10 10 0 6 5 10 10 10 6 0 10 -4 10 -10z m60
-10 c0 -5 -4 -10 -10 -10 -5 0 -10 5 -10 10 0 6 5 10 10 10 6 0 10 -4 10 -10z
m30 -10 c0 -5 -2 -10 -4 -10 -3 0 -8 5 -11 10 -3 6 -1 10 4 10 6 0 11 -4 11
-10z m25 0 c3 -5 1 -10 -4 -10 -6 0 -11 5 -11 10 0 6 2 10 4 10 3 0 8 -4 11
-10z m355 -25 c8 -16 19 -32 23 -33 4 -2 4 -9 -1 -15 -5 -7 -12 -24 -16 -39
-4 -18 -11 -25 -20 -22 -8 3 -17 1 -21 -5 -8 -14 -55 -14 -55 -1 0 6 -6 10
-14 10 -8 0 -21 14 -30 30 -8 17 -10 30 -5 30 5 0 9 11 9 24 0 38 26 57 73 54
34 -2 44 -8 57 -33z m-480 21 c0 -3 -4 -8 -10 -11 -5 -3 -10 -1 -10 4 0 6 5
11 10 11 6 0 10 -2 10 -4z m-45 -16 c3 -5 1 -10 -4 -10 -6 0 -11 5 -11 10 0 6
2 10 4 10 3 0 8 -4 11 -10z m75 0 c0 -5 -4 -10 -10 -10 -5 0 -10 5 -10 10 0 6
5 10 10 10 6 0 10 -4 10 -10z m30 0 c0 -5 -4 -10 -10 -10 -5 0 -10 5 -10 10 0
6 5 10 10 10 6 0 10 -4 10 -10z m30 -10 c0 -5 -4 -10 -10 -10 -5 0 -10 5 -10
10 0 6 5 10 10 10 6 0 10 -4 10 -10z m-110 -15 c-10 -12 -9 -16 4 -21 9 -3 16
-11 16 -16 0 -6 -6 -5 -15 2 -12 10 -16 9 -21 -4 -3 -9 -11 -16 -16 -16 -6 0
-5 6 2 15 10 12 9 16 -4 21 -9 3 -16 11 -16 16 0 6 6 5 15 -2 12 -10 16 -9 21
4 3 9 11 16 16 16 6 0 5 -6 -2 -15z m144 9 c9 -3 16 -11 16 -16 0 -7 -5 -6
-13 1 -8 6 -17 8 -20 4 -4 -3 -7 -1 -7 5 0 14 2 14 24 6z m-104 -8 c0 -3 -4
-8 -10 -11 -5 -3 -10 -1 -10 4 0 6 5 11 10 11 6 0 10 -2 10 -4z m25 -6 c3 -5
1 -10 -4 -10 -6 0 -11 5 -11 10 0 6 2 10 4 10 3 0 8 -4 11 -10z m135 0 c0 -5
-5 -10 -11 -10 -5 0 -7 5 -4 10 3 6 8 10 11 10 2 0 4 -4 4 -10z m-105 -10 c3
-5 1 -10 -4 -10 -6 0 -11 5 -11 10 0 6 2 10 4 10 3 0 8 -4 11 -10z m35 -10 c0
-5 -4 -10 -10 -10 -5 0 -10 5 -10 10 0 6 5 10 10 10 6 0 10 -4 10 -10z m-75
-9 c3 -5 1 -12 -5 -16 -5 -3 -10 1 -10 9 0 18 6 21 15 7z m109 3 c9 -3 16 -11
16 -16 0 -7 -5 -6 -13 1 -8 6 -17 8 -20 4 -4 -3 -7 -1 -7 5 0 14 2 14 24 6z
m-74 -18 c0 -3 -4 -8 -10 -11 -5 -3 -10 -1 -10 4 0 6 5 11 10 11 6 0 10 -2 10
-4z m-80 -16 c0 -5 -2 -10 -4 -10 -3 0 -8 5 -11 10 -3 6 -1 10 4 10 6 0 11 -4
11 -10z m130 0 c0 -5 -5 -10 -11 -10 -5 0 -7 5 -4 10 3 6 8 10 11 10 2 0 4 -4
4 -10z m-170 -10 c0 -5 -4 -10 -10 -10 -5 0 -10 5 -10 10 0 6 5 10 10 10 6 0
10 -4 10 -10z m70 0 c0 -5 -2 -10 -4 -10 -3 0 -8 5 -11 10 -3 6 -1 10 4 10 6
0 11 -4 11 -10z m135 0 c3 -5 1 -10 -4 -10 -6 0 -11 5 -11 10 0 6 2 10 4 10 3
0 8 -4 11 -10z m-105 -10 c0 -5 -2 -10 -4 -10 -3 0 -8 5 -11 10 -3 6 -1 10 4
10 6 0 11 -4 11 -10z m-70 -10 c0 -5 -4 -10 -10 -10 -5 0 -10 5 -10 10 0 6 5
10 10 10 6 0 10 -4 10 -10z m100 0 c0 -5 -4 -10 -10 -10 -5 0 -10 5 -10 10 0
6 5 10 10 10 6 0 10 -4 10 -10z m-140 -10 c0 -5 -4 -10 -10 -10 -5 0 -10 5
-10 10 0 6 5 10 10 10 6 0 10 -4 10 -10z m70 0 c0 -5 -2 -10 -4 -10 -3 0 -8 5
-11 10 -3 6 -1 10 4 10 6 0 11 -4 11 -10z m120 -2 c0 -3 -9 -6 -20 -5 -11 1
-20 5 -20 9 0 3 9 6 20 5 11 -1 20 -5 20 -9z m-90 -8 c0 -5 -4 -10 -10 -10 -5
0 -10 5 -10 10 0 6 5 10 10 10 6 0 10 -4 10 -10z m120 0 c0 -5 -2 -10 -4 -10
-3 0 -8 5 -11 10 -3 6 -1 10 4 10 6 0 11 -4 11 -10z m-199 -13 c-6 -8 -8 -17
-4 -20 3 -4 1 -7 -5 -7 -14 0 -14 2 -6 24 3 9 11 16 16 16 7 0 6 -5 -1 -13z
m109 2 c0 -5 5 -7 10 -4 6 3 10 1 10 -4 0 -13 -3 -13 -24 -5 -18 7 -22 24 -6
24 6 0 10 -5 10 -11z m-140 -3 c0 -2 -7 -9 -15 -16 -13 -11 -14 -10 -9 4 5 14
24 23 24 12z m70 -6 c0 -5 -4 -10 -10 -10 -5 0 -10 5 -10 10 0 6 5 10 10 10 6
0 10 -4 10 -10z m30 -4 c0 -3 -4 -8 -10 -11 -5 -3 -10 -1 -10 4 0 6 5 11 10
11 6 0 10 -2 10 -4z m100 -6 c0 -5 -4 -10 -10 -10 -5 0 -10 5 -10 10 0 6 5 10
10 10 6 0 10 -4 10 -10z m30 0 c0 -5 -4 -10 -10 -10 -5 0 -10 5 -10 10 0 6 5
10 10 10 6 0 10 -4 10 -10z m-170 -14 c0 -2 -7 -9 -15 -16 -13 -11 -14 -10 -9
4 5 14 24 23 24 12z m90 -7 c0 -5 5 -7 10 -4 6 3 10 1 10 -4 0 -13 -3 -13 -24
-5 -18 7 -22 24 -6 24 6 0 10 -5 10 -11z m-56 -5 c9 -3 16 -11 16 -16 0 -7 -5
-6 -13 1 -8 6 -17 8 -20 4 -4 -3 -7 -1 -7 5 0 14 2 14 24 6z m136 -6 c0 -4
-12 -8 -26 -8 -14 0 -23 4 -20 8 2 4 14 8 25 8 12 0 21 -4 21 -8z m-130 -28
c8 -5 12 -12 9 -15 -8 -8 -39 5 -39 16 0 11 11 11 30 -1z m100 0 c0 -5 -4 -10
-10 -10 -5 0 -10 5 -10 10 0 6 5 10 10 10 6 0 10 -4 10 -10z m30 0 c0 -5 -5
-10 -11 -10 -5 0 -7 5 -4 10 3 6 8 10 11 10 2 0 4 -4 4 -10z m-60 -4 c0 -3 -4
-8 -10 -11 -5 -3 -10 -1 -10 4 0 6 5 11 10 11 6 0 10 -2 10 -4z m-30 -16 c0
-5 -4 -10 -10 -10 -5 0 -10 5 -10 10 0 6 5 10 10 10 6 0 10 -4 10 -10z m-60
-20 c0 -5 -4 -10 -8 -10 -4 0 -8 -12 -7 -27 0 -20 5 -28 18 -27 9 1 17 -3 17
-9 0 -7 4 -7 12 1 9 9 16 8 28 -3 17 -15 50 -11 50 6 0 5 5 9 11 9 8 0 8 -4 2
-12 -6 -7 -16 -30 -22 -50 -38 -116 -200 -119 -251 -5 -11 23 -20 61 -20 84
l0 42 78 4 c42 1 80 4 85 5 4 1 7 -2 7 -8z m25 0 c3 -5 1 -10 -4 -10 -6 0 -11
5 -11 10 0 6 2 10 4 10 3 0 8 -4 11 -10z m60 0 c3 -5 1 -10 -4 -10 -6 0 -11 5
-11 10 0 6 2 10 4 10 3 0 8 -4 11 -10z m35 0 c0 -5 -2 -10 -4 -10 -3 0 -8 5
-11 10 -3 6 -1 10 4 10 6 0 11 -4 11 -10z m30 0 c0 -5 -2 -10 -4 -10 -3 0 -8
5 -11 10 -3 6 -1 10 4 10 6 0 11 -4 11 -10z m518 -42 c-10 -117 -63 -172 -160
-165 -88 5 -128 55 -128 156 l0 50 98 4 c53 1 119 4 146 5 l48 2 -4 -52z
m-608 32 c0 -5 -4 -10 -10 -10 -5 0 -10 5 -10 10 0 6 5 10 10 10 6 0 10 -4 10
-10z m25 -20 c3 -5 1 -10 -4 -10 -6 0 -11 5 -11 10 0 6 2 10 4 10 3 0 8 -4 11
-10z m35 0 c0 -5 -4 -10 -10 -10 -5 0 -10 5 -10 10 0 6 5 10 10 10 6 0 10 -4
10 -10z m30 0 c0 -5 -2 -10 -4 -10 -3 0 -8 5 -11 10 -3 6 -1 10 4 10 6 0 11
-4 11 -10z m-130 -10 c0 -5 -2 -10 -4 -10 -3 0 -8 5 -11 10 -3 6 -1 10 4 10 6
0 11 -4 11 -10z m40 0 c0 -5 -4 -10 -10 -10 -5 0 -10 5 -10 10 0 6 5 10 10 10
6 0 10 -4 10 -10z m100 -14 c0 -3 -4 -8 -10 -11 -5 -3 -10 -1 -10 4 0 6 5 11
10 11 6 0 10 -2 10 -4z m-70 -16 c0 -5 -4 -10 -10 -10 -5 0 -10 5 -10 10 0 6
5 10 10 10 6 0 10 -4 10 -10z"/>
<path d="M1254 2704 c9 -38 50 -74 86 -74 34 0 90 44 90 71 0 16 -7 19 -44 19
-24 0 -65 3 -91 7 l-48 6 7 -29z"/>
<path d="M2130 2702 c0 -36 43 -72 85 -72 27 0 44 8 66 29 50 50 41 59 -61 63
-88 3 -90 3 -90 -20z"/>
<path d="M1720 2551 c-72 -23 -185 -114 -215 -171 -10 -19 -36 -34 -98 -58
-334 -127 -542 -437 -497 -739 71 -466 615 -756 1150 -612 233 62 435 219 534
415 171 337 4 731 -387 914 -47 22 -98 43 -114 46 -19 4 -39 21 -62 56 -37 53
-95 105 -150 133 -38 19 -125 28 -161 16z m126 -38 c35 -12 67 -35 112 -79 34
-34 62 -68 62 -75 0 -9 -28 -11 -122 -6 -66 4 -177 7 -245 7 l-124 0 21 30
c29 40 120 109 167 126 50 18 70 17 129 -3z m-2 -193 l169 0 -25 -32 c-14 -18
-50 -50 -81 -72 -70 -49 -140 -59 -208 -29 -45 20 -159 117 -159 135 0 7 23 9
68 5 37 -4 143 -7 236 -7z m-404 -19 c0 -5 -7 -28 -15 -51 -31 -89 -63 -268
-68 -380 -3 -63 -3 -104 -1 -90 3 14 13 63 24 110 10 47 26 127 35 179 19 110
33 140 79 176 l35 26 58 -47 c76 -62 126 -84 193 -84 63 0 120 23 171 68 62
54 131 69 153 34 3 -5 17 -7 30 -5 19 4 33 -3 56 -26 18 -17 35 -31 40 -31 10
0 37 -72 44 -120 5 -32 26 -212 44 -385 6 -64 7 -58 12 75 3 80 2 163 -1 185
-18 110 -40 242 -44 255 -3 8 0 21 4 29 8 12 18 7 56 -24 33 -27 43 -40 34
-46 -7 -4 -21 -3 -31 2 -16 9 -17 7 -6 -18 7 -15 15 -32 19 -38 13 -19 38
-149 54 -280 20 -168 23 -181 37 -167 8 8 15 9 25 1 20 -17 15 -31 -9 -27 -22
3 -23 1 -25 -102 -3 -114 -14 -199 -40 -299 -18 -68 -44 -95 -136 -142 l-38
-20 31 57 c16 31 30 58 30 59 0 2 -31 -29 -70 -68 -64 -64 -91 -81 -55 -33 8
10 11 24 7 30 -4 6 -7 20 -7 31 0 14 -7 19 -22 18 -17 -2 -20 2 -15 19 3 15 1
19 -9 16 -8 -3 -14 -15 -14 -28 0 -13 -6 -25 -13 -28 -7 -2 -10 -8 -6 -13 3
-5 0 -9 -7 -9 -7 0 -25 -12 -40 -26 -31 -29 -77 -36 -244 -34 -103 1 -147 13
-184 51 -17 17 -31 28 -31 26 0 -3 -25 1 -55 8 -36 8 -55 9 -58 2 -2 -6 -18
10 -37 36 -18 26 -35 47 -37 47 -8 0 41 -88 74 -132 19 -27 30 -48 24 -48 -6
0 -11 5 -11 10 0 15 -78 90 -93 90 -13 0 -64 72 -110 155 -15 27 -25 39 -21
25 12 -46 72 -155 123 -224 28 -38 49 -71 46 -74 -3 -3 -47 16 -99 41 -185 92
-357 297 -382 457 -6 39 -6 40 24 40 17 0 32 5 34 11 4 12 47 19 63 10 6 -3
-6 -9 -25 -12 -34 -6 -33 -6 11 -8 l46 -1 6 108 c14 235 63 413 142 521 34 47
57 66 107 90 65 32 88 37 88 22z m-466 -599 c3 -5 -1 -9 -9 -9 -8 0 -15 4 -15
9 0 4 4 8 9 8 6 0 12 -4 15 -8z m1580 -75 c0 -21 3 -37 8 -37 4 0 8 6 8 13 0
8 4 7 10 -3 5 -8 10 -10 11 -5 4 44 19 73 19 38 0 -12 6 -23 13 -26 22 -8 -10
-30 -51 -34 -35 -3 -39 -1 -55 31 -15 32 -15 37 0 51 23 24 38 13 37 -28z m86
23 c0 -5 -5 -10 -11 -10 -5 0 -7 5 -4 10 3 6 8 10 11 10 2 0 4 -4 4 -10z
m-160 -66 c0 -8 -7 -14 -15 -14 -8 0 -15 9 -15 20 0 13 5 18 15 14 8 -4 15
-12 15 -20z m34 -6 c-10 -16 -22 -7 -17 13 4 15 8 17 14 8 4 -7 5 -17 3 -21z
m-1541 -5 c-7 -2 -19 -2 -25 0 -7 3 -2 5 12 5 14 0 19 -2 13 -5z m1527 -277
c0 -15 -54 -39 -64 -29 -6 6 41 41 57 42 4 1 7 -5 7 -13z m-979 -283 c13 -16
12 -17 -3 -4 -17 13 -22 21 -14 21 2 0 10 -8 17 -17z"/>
<path d="M2060 1876 c0 -2 9 -6 20 -9 11 -3 20 -1 20 4 0 5 -9 9 -20 9 -11 0
-20 -2 -20 -4z"/>
<path d="M1540 1734 c-49 -17 -73 -34 -49 -34 7 0 24 -3 37 -6 16 -5 22 -2 22
10 0 26 38 20 42 -6 3 -20 8 -23 47 -21 25 1 51 9 60 18 15 15 14 18 -8 36
-28 23 -88 24 -151 3z"/>
<path d="M2031 1717 c-19 -7 -37 -19 -39 -27 -4 -12 -2 -13 9 -2 19 18 29 15
29 -8 0 -15 7 -20 30 -22 17 -1 45 -3 63 -4 38 -2 77 5 77 15 0 11 -72 48
-105 54 -16 3 -45 0 -64 -6z"/>
<path d="M1342 1690 c0 -19 2 -27 5 -17 2 9 2 25 0 35 -3 9 -5 1 -5 -18z"/>
<path d="M1776 1474 c-9 -22 -2 -27 24 -19 12 4 19 12 17 18 -6 19 -34 20 -41
1z"/>
<path d="M1871 1465 l-25 -14 30 -6 c16 -3 37 -10 46 -15 11 -6 19 -6 23 0 3
6 2 10 -3 10 -5 0 -12 9 -15 20 -6 23 -21 24 -56 5z"/>
<path d="M1813 1395 c-34 -24 -87 -96 -76 -103 6 -4 16 -24 23 -44 16 -43 47
-58 117 -58 55 0 99 37 89 76 -5 17 -2 24 9 24 8 0 15 4 15 8 0 16 -59 91 -79
101 -28 16 -73 13 -98 -4z m137 -99 c0 -22 -51 -36 -118 -32 -70 3 -80 8 -61
30 19 20 179 22 179 2z"/>
<path d="M2525 1640 c3 -5 8 -10 11 -10 2 0 4 5 4 10 0 6 -5 10 -11 10 -5 0
-7 -4 -4 -10z"/>
<path d="M1960 671 c0 -4 -11 -6 -25 -3 -14 2 -25 0 -25 -5 0 -14 53 -10 58 5
2 6 1 12 -2 12 -3 0 -6 -4 -6 -9z"/>
<path d="M2650 2816 c0 -2 8 -10 18 -17 15 -13 16 -12 3 4 -13 16 -21 21 -21
13z"/>
<path d="M2760 2718 c24 -27 45 -48 47 -48 8 0 0 9 -44 50 l-48 45 45 -47z"/>
<path d="M3071 2114 c0 -11 3 -14 6 -6 3 7 2 16 -1 19 -3 4 -6 -2 -5 -13z"/>
<path d="M491 2094 c0 -11 3 -14 6 -6 3 7 2 16 -1 19 -3 4 -6 -2 -5 -13z"/>
<path d="M3084 1945 c0 -60 1 -84 3 -52 2 32 2 81 0 110 -2 29 -3 3 -3 -58z"/>
<path d="M492 1895 c0 -16 2 -22 5 -12 2 9 2 23 0 30 -3 6 -5 -1 -5 -18z"/>
<path d="M3071 1774 c0 -11 3 -14 6 -6 3 7 2 16 -1 19 -3 4 -6 -2 -5 -13z"/>
<path d="M820 1115 c30 -30 57 -55 59 -55 3 0 -19 25 -49 55 -30 30 -57 55
-59 55 -3 0 19 -25 49 -55z"/>
<path d="M2799 1153 c-13 -16 -12 -17 4 -4 9 7 17 15 17 17 0 8 -8 3 -21 -13z"/>
<path d="M2729 1083 c-13 -16 -12 -17 4 -4 9 7 17 15 17 17 0 8 -8 3 -21 -13z"/>
<path d="M2483 630 c0 -25 2 -35 4 -22 2 12 2 32 0 45 -2 12 -4 2 -4 -23z"/>
<path d="M2419 453 c-13 -16 -12 -17 4 -4 16 13 21 21 13 21 -2 0 -10 -8 -17
-17z"/>
<path d="M1146 427 c3 -10 9 -15 12 -12 3 3 0 11 -7 18 -10 9 -11 8 -5 -6z"/>
<path d="M1230 115 c13 -14 26 -25 28 -25 3 0 -5 11 -18 25 -13 14 -26 25 -28
25 -3 0 5 -11 18 -25z"/>
<path d="M1800 96 c0 -2 8 -10 18 -17 15 -13 16 -12 3 4 -13 16 -21 21 -21 13z"/>
<path d="M2048 33 c7 -3 16 -2 19 1 4 3 -2 6 -13 5 -11 0 -14 -3 -6 -6z"/>
</g>
</svg>
